<svg width="1600" height="606" viewBox="0 0 1600 606" fill="none" xmlns="http://www.w3.org/2000/svg">
<path d="M290.359 98.7025C123.295 111.243 -93 207.069 -93 207.069L-93.0001 763.729C-93.0001 763.729 58.54 850.189 190.895 855.527C410.001 864.364 572.486 746.371 792.038 750.828C1035.85 755.778 1149.32 838.369 1393.11 843.714C1539.75 846.93 1767 823.073 1767 823.073L1767 0C1767 0 1696.25 88.6213 1643.95 98.7025C1524.99 121.629 1448.21 80.888 1322.11 83.2215C1094.96 87.425 986.149 165.688 758.908 163.207C570.222 161.146 477.319 84.6682 290.359 98.7025Z" fill="#194484"/>
</svg>
