<svg width="126" height="230" viewBox="0 0 126 230" fill="none" xmlns="http://www.w3.org/2000/svg">
<g opacity="0.12">
<path d="M112.618 0H13.382C5.99171 0 0 5.97522 0 13.3498V178.088V215.672C0 223.104 6.05519 229.022 13.382 229.022H112.618C120.006 229.022 126 223.049 126 215.672V50.9335V13.3498C126 5.90985 119.937 0 112.618 0Z" fill="#276ED8"/>
<path d="M119.515 18.1938H6.48907V210.827H119.515V18.1938Z" fill="white"/>
<path d="M86.3033 12.1406H39.8829C39.3464 12.1406 38.9102 11.7076 38.9102 11.1703V10.6964C38.9102 10.1612 39.3444 9.72607 39.8829 9.72607H86.3033C86.8398 9.72607 87.276 10.1591 87.276 10.6964V11.1703C87.2739 11.7055 86.8398 12.1406 86.3033 12.1406Z" fill="white"/>
<path d="M119.515 199.434H6.48907V210.829H119.515V199.434Z" fill="#84B5FF"/>
<path d="M119.515 18.1938H6.48907V28.4161H119.515V18.1938Z" fill="#84B5FF"/>
</g>
</svg>
