<svg width="1598" height="635" viewBox="0 0 1598 635" fill="none" xmlns="http://www.w3.org/2000/svg">
<mask id="mask0_11304_6467" style="mask-type:alpha" maskUnits="userSpaceOnUse" x="0" y="0" width="1600" height="635">
<rect width="1600" height="635" fill="#C4C4C4"/>
</mask>
<g mask="url(#mask0_11304_6467)">
<path d="M247.314 71.9751C80.7575 51.8805 -167.022 -26 -167.022 -26L-194 615.365C-194 615.365 239.231 512.505 525.977 512.654C741.808 512.767 880.307 528.28 1095.08 548.874C1343.61 572.705 1712.45 624.377 1712.45 624.377L1731.8 164.389C1731.8 164.389 1323.56 69.6371 1047.26 46.4251C732.382 19.9722 560.614 109.774 247.314 71.9751Z" fill="#276ED8" fill-opacity="0.1"/>
<path d="M350 114.726C209.184 103.72 -1.99982 47 -1.99982 47V587.231C-1.99982 587.231 358.788 485.421 600 475.405C781.558 467.866 898.61 476.011 1080 485.731C1289.9 496.979 1602 527.38 1602 527.38V139.926C1602 139.926 1255.24 74.6947 1022 64.9498C756.192 53.8442 614.881 135.427 350 114.726Z" fill="#276ED8"/>
</g>
</svg>
