<svg width="40" height="40" viewBox="0 0 40 40" fill="none" xmlns="http://www.w3.org/2000/svg">
<path d="M38.8093 24.2216C41.703 11.2196 30.311 -0.592122 16.9327 1.67533C9.6699 -2.83127 -0.000488281 2.26133 -0.000488281 10.9016C-0.000488281 12.911 0.55396 14.7922 1.518 16.4137C-1.17099 29.4458 10.3143 41.0877 23.681 38.6654C33.1299 43.6614 43.5712 33.6976 38.8093 24.2216V24.2216ZM26.0919 32.0628C22.5821 33.5062 16.8061 33.5145 13.3113 31.6849C8.3279 29.0279 7.44211 23.0463 11.7412 23.0463C14.9813 23.0463 13.9556 26.8237 17.2274 28.3636C18.7292 29.0579 21.9577 29.1294 23.8341 27.8642C25.6873 26.6239 25.5175 24.6728 24.5101 23.7405C21.8411 21.2766 14.2037 22.2555 10.7122 17.942C9.19537 16.0708 8.90899 12.7695 10.7738 10.3755C14.0239 6.19358 23.5611 5.93886 27.662 9.09698C31.4482 12.027 30.4259 15.916 27.3706 15.916C23.6959 15.916 25.6274 11.108 19.6949 11.108C15.3942 11.108 13.7026 14.1663 16.7312 15.6546C20.8371 17.694 31.3001 17.0131 31.3001 24.9824C31.2917 28.2987 29.2588 30.7709 26.0919 32.0628V32.0628Z" fill="white"/>
</svg>
