<svg width="40" height="40" viewBox="0 0 40 40" fill="none" xmlns="http://www.w3.org/2000/svg">
<path d="M20.0087 0.00415039H19.9987C8.97349 0.00415039 0.0078125 8.97232 0.0078125 20.0001C0.0078125 24.3742 1.41753 28.4284 3.81454 31.7202L1.32254 39.1487L9.00848 36.6917C12.1703 38.7863 15.9421 39.996 20.0087 39.996C31.034 39.996 39.9997 31.0253 39.9997 20.0001C39.9997 8.97482 31.034 0.00415039 20.0087 0.00415039ZM31.6439 28.2409C31.1615 29.6031 29.2469 30.7329 27.7197 31.0628C26.6749 31.2853 25.3102 31.4627 20.7161 29.5581C14.8398 27.1236 11.0556 21.1523 10.7606 20.7649C10.4782 20.3775 8.38611 17.6031 8.38611 14.7337C8.38611 11.8642 9.84331 10.467 10.4307 9.86714C10.9131 9.37474 11.7104 9.14979 12.4753 9.14979C12.7227 9.14979 12.9452 9.16229 13.1451 9.17228C13.7325 9.19728 14.0275 9.23227 14.4149 10.1596C14.8973 11.3218 16.072 14.1913 16.212 14.4862C16.3545 14.7811 16.497 15.1811 16.297 15.5685C16.1095 15.9684 15.9446 16.1459 15.6496 16.4858C15.3547 16.8257 15.0747 17.0857 14.7798 17.4506C14.5099 17.768 14.2049 18.108 14.5449 18.6953C14.8848 19.2702 16.0595 21.1873 17.7892 22.727C20.0212 24.7141 21.8309 25.349 22.4782 25.6189C22.9606 25.8189 23.5355 25.7714 23.888 25.3965C24.3354 24.9141 24.8877 24.1142 25.4501 23.3269C25.8501 22.762 26.3549 22.692 26.8848 22.892C27.4247 23.0795 30.2817 24.4917 30.869 24.7841C31.4564 25.079 31.8438 25.219 31.9863 25.4665C32.1263 25.7139 32.1263 26.8762 31.6439 28.2409Z" fill="white"/>
</svg>
