<svg width="14" height="14" viewBox="0 0 14 14" fill="none" xmlns="http://www.w3.org/2000/svg">
<g clip-path="url(#clip0_147_1338)">
<path d="M13.7838 1.39069C13.6128 1.18155 13.3567 1.06641 13.0625 1.06641C12.9026 1.06641 12.7332 1.10005 12.5591 1.1666L0.708396 5.69038C0.0794897 5.93039 -0.00521178 6.29056 0.000235596 6.48389C0.00568298 6.67722 0.110679 7.03204 0.752189 7.23616C0.756034 7.23734 0.759879 7.23851 0.763724 7.23958L3.22188 7.94304L4.55126 11.7445C4.73252 12.2627 5.13937 12.5846 5.61318 12.5846C5.91193 12.5846 6.20577 12.4595 6.46297 12.2228L7.98344 10.8228L10.1888 12.5985C10.189 12.5987 10.1893 12.5988 10.1895 12.5991L10.2105 12.6159C10.2124 12.6174 10.2144 12.619 10.2163 12.6205C10.4615 12.8107 10.729 12.9111 10.9904 12.9112H10.9905C11.5012 12.9112 11.9078 12.5332 12.0263 11.9483L13.968 2.36043C14.046 1.97559 13.9806 1.63123 13.7838 1.39069V1.39069ZM4.04423 7.80942L8.78676 5.38661L5.83375 8.52441C5.78536 8.57579 5.75107 8.6387 5.7342 8.70717L5.16479 11.0137L4.04423 7.80942ZM5.90723 11.6193C5.88758 11.6373 5.86782 11.6535 5.84806 11.6683L6.37635 9.52866L7.33733 10.3025L5.90723 11.6193ZM13.164 2.19754L11.2223 11.7855C11.2036 11.8772 11.1439 12.0907 10.9904 12.0907C10.9146 12.0907 10.8193 12.0494 10.7218 11.9743L8.2228 9.9622C8.22248 9.96188 8.22205 9.96156 8.22163 9.96135L6.7347 8.76399L11.0051 4.22632C11.1419 4.08105 11.1542 3.85857 11.0345 3.69899C10.9147 3.53941 10.6975 3.48921 10.5199 3.58L3.49618 7.16823L1.00458 6.45537L12.8517 1.93297C12.9518 1.89473 13.0216 1.88672 13.0625 1.88672C13.0876 1.88672 13.1323 1.88971 13.1488 1.91011C13.1706 1.93671 13.1984 2.02739 13.164 2.19754V2.19754Z" fill="white"/>
</g>
<defs>
<clipPath id="clip0_147_1338">
<rect width="14" height="14" fill="white"/>
</clipPath>
</defs>
</svg>
