<svg width="22" height="16" viewBox="0 0 22 16" fill="none" xmlns="http://www.w3.org/2000/svg">
<path d="M5.13333 12.0334C4.52583 12.0334 4.03333 12.526 4.03333 13.1334C4.03333 13.7409 4.52579 14.2334 5.13333 14.2334C5.74086 14.2334 6.23333 13.741 6.23333 13.1334C6.23264 12.5262 5.74056 12.0341 5.13333 12.0334ZM5.13333 13.5001C4.93081 13.5001 4.76667 13.336 4.76667 13.1334C4.76667 12.9309 4.93081 12.7668 5.13333 12.7668C5.33584 12.7668 5.49998 12.9309 5.49998 13.1334C5.49976 13.3359 5.33575 13.4999 5.13333 13.5001Z" fill="#956D84"/>
<path d="M16.8667 12.0334C16.2592 12.0334 15.7667 12.526 15.7667 13.1334C15.7667 13.7409 16.2592 14.2334 16.8667 14.2334C17.4742 14.2334 17.9667 13.741 17.9667 13.1334C17.966 12.5262 17.4739 12.0341 16.8667 12.0334ZM16.8667 13.5001C16.6641 13.5001 16.5 13.336 16.5 13.1334C16.5 12.9309 16.6642 12.7668 16.8667 12.7668C17.0692 12.7668 17.2333 12.9309 17.2333 13.1334C17.2331 13.3359 17.0691 13.4999 16.8667 13.5001Z" fill="#956D84"/>
<path d="M21.7205 6.81411L19.1947 3.96958C18.9854 3.73394 18.6852 3.5994 18.37 3.60005H15.0333V1.40005C15.0327 0.792814 14.5406 0.300693 13.9333 0.300049H1.1C0.492766 0.300693 0.000644567 0.792814 3.58087e-08 1.40005V10.9334C-4.29329e-05 11.0306 0.038586 11.1239 0.107379 11.1927C0.176129 11.2615 0.269414 11.3001 0.366695 11.3001H0.733348V12.4001C0.733992 13.0073 1.22611 13.4994 1.83335 13.5001H2.59596C2.77668 14.7625 3.85804 15.7001 5.13335 15.7001C6.40866 15.7001 7.49001 14.7625 7.67074 13.5001H14.3293C14.5101 14.7625 15.5914 15.7001 16.8667 15.7001C18.1421 15.7001 19.2234 14.7625 19.4041 13.5001H20.9C21.5072 13.4994 21.9994 13.0073 22 12.4001V7.54531C21.9997 7.27551 21.9003 7.01529 21.7205 6.81411ZM0.733348 10.5667V1.40005C0.733562 1.19762 0.897574 1.03357 1.1 1.0334H13.9333C14.1358 1.03361 14.2998 1.19762 14.3 1.40005V10.5667H0.733348ZM2.59596 12.7667H1.83335C1.63092 12.7665 1.46687 12.6025 1.4667 12.4V11.3H3.34056C2.93777 11.6937 2.67605 12.2092 2.59596 12.7667ZM5.13335 14.9667C4.12083 14.9667 3.3 14.1459 3.3 13.1334C3.3 12.1208 4.12083 11.3 5.13335 11.3C6.14586 11.3 6.9667 12.1209 6.9667 13.1334C6.96549 14.1454 6.14535 14.9655 5.13335 14.9667ZM8.8 12.7667H7.6707C7.5906 12.2092 7.32892 11.6937 6.92613 11.3H8.8V12.7667ZM12.1 12.7667H9.53335V11.3H12.1V12.7667ZM14.3293 12.7667H12.8333V11.3H15.0739C14.6711 11.6937 14.4094 12.2092 14.3293 12.7667ZM16.8667 14.9667C15.8541 14.9667 15.0333 14.1459 15.0333 13.1334C15.0333 12.1208 15.8541 11.3 16.8667 11.3C17.8792 11.3 18.7 12.1208 18.7 13.1334C18.6988 14.1454 17.8787 14.9655 16.8667 14.9667ZM21.2667 12.4C21.2664 12.6025 21.1024 12.7665 20.9 12.7667H19.404C19.2212 11.5054 18.1411 10.569 16.8667 10.5667H15.0333V4.3334H16.5V8.00005C16.5006 8.60728 16.9928 9.0994 17.6 9.10005H21.2667V12.4ZM21.2667 8.3667H17.6C17.3976 8.36649 17.2335 8.20247 17.2333 8.00005V4.3334H18.37C18.4753 4.3328 18.5758 4.3774 18.6459 4.45586L21.1727 7.30146C21.2328 7.36849 21.2663 7.45525 21.2667 7.54531V8.3667H21.2667Z" fill="#956D84"/>
</svg>
