<svg width="27" height="27" viewBox="0 0 27 27" fill="none" xmlns="http://www.w3.org/2000/svg">
<circle cx="13.5417" cy="13.5417" r="13.4583" fill="#956D84"/>
<g clip-path="url(#clip0_95_5679)">
<path d="M14.3828 19.8503H12.3543C12.0155 19.8503 11.7399 19.5746 11.7399 19.2358V14.6606H10.5564C10.2176 14.6606 9.94202 14.3848 9.94202 14.0461V12.0856C9.94202 11.7468 10.2176 11.4712 10.5564 11.4712H11.7399V10.4894C11.7399 9.51598 12.0456 8.68778 12.6237 8.09451C13.2045 7.49854 14.0162 7.18359 14.971 7.18359L16.518 7.18611C16.8562 7.18669 17.1314 7.4623 17.1314 7.80054V9.62083C17.1314 9.95965 16.8559 10.2353 16.5171 10.2353L15.4756 10.2356C15.1579 10.2356 15.077 10.2993 15.0597 10.3189C15.0312 10.3512 14.9973 10.4427 14.9973 10.6955V11.4711H16.4389C16.5474 11.4711 16.6525 11.4978 16.7429 11.5483C16.9378 11.6572 17.059 11.8631 17.059 12.0857L17.0582 14.0462C17.0582 14.3848 16.7826 14.6605 16.4438 14.6605H14.9973V19.2358C14.9973 19.5746 14.7216 19.8503 14.3828 19.8503ZM12.4825 19.1077H14.2546V14.3281C14.2546 14.1019 14.4387 13.9179 14.6649 13.9179H16.3156L16.3163 12.2138H14.6648C14.4386 12.2138 14.2546 12.0297 14.2546 11.8035V10.6955C14.2546 10.4053 14.2841 10.0754 14.5031 9.82744C14.7677 9.52767 15.1847 9.49307 15.4754 9.49307L16.3888 9.49269V7.92849L14.9704 7.92617C13.436 7.92617 12.4825 8.90841 12.4825 10.4894V11.8035C12.4825 12.0297 12.2985 12.2138 12.0723 12.2138H10.6846V13.9179H12.0723C12.2985 13.9179 12.4825 14.1019 12.4825 14.3281V19.1077ZM16.5166 7.92868H16.5167H16.5166Z" fill="white"/>
</g>
<defs>
<clipPath id="clip0_95_5679">
<rect width="12.6419" height="12.6667" fill="white" transform="translate(7.2083 7.20837)"/>
</clipPath>
</defs>
</svg>
