<svg width="34" height="30" viewBox="0 0 34 30" fill="none" xmlns="http://www.w3.org/2000/svg">
<path d="M17 29.2981C16.5302 29.2981 16.0773 29.1326 15.7243 28.832C14.3912 27.6987 13.1059 26.6337 11.9719 25.6943L11.9662 25.6894C8.64153 22.935 5.77061 20.5563 3.77307 18.2131C1.54012 15.5935 0.500061 13.1098 0.500061 10.3965C0.500061 7.76028 1.42985 5.32822 3.11796 3.54799C4.82622 1.7467 7.17019 0.754639 9.71885 0.754639C11.6237 0.754639 13.3683 1.34014 14.9038 2.49473C15.6787 3.07753 16.3812 3.7908 17 4.62278C17.6191 3.7908 18.3213 3.07753 19.0965 2.49473C20.6321 1.34014 22.3766 0.754639 24.2815 0.754639C26.8299 0.754639 29.1741 1.7467 30.8824 3.54799C32.5705 5.32822 33.5 7.76028 33.5 10.3965C33.5 13.1098 32.4602 15.5935 30.2272 18.2128C28.2297 20.5563 25.359 22.9347 22.0349 25.6889C20.8989 26.6298 19.6116 27.6965 18.2755 28.8325C17.9228 29.1326 17.4696 29.2981 17 29.2981ZM9.00006 21.5204C6.99774 21.5204 7.33822 17.679 6.00006 19.0899C4.64202 20.522 2.00006 14.7149 3.00006 10.8261C3.00006 13.1081 3.30528 14.7194 5.26128 17.0139C7.15181 19.2318 9.96383 21.5616 13.2197 24.2592L13.2258 24.2641C14.364 25.2072 15.6543 26.2764 16.9973 27.418C18.3483 26.2742 19.6406 25.2033 20.7811 24.2587C24.0367 21.5611 26.8485 19.2318 28.739 17.0139C30.6948 14.7194 31.5672 12.6785 31.5672 10.3965C31.5672 8.23367 33.858 13.8533 32.5 12.4211C31.1621 11.0103 32.8844 14.8517 30.8824 14.8517C29.4155 14.8517 29.9281 16.12 28.739 17.0139C27.6793 17.8109 24.4329 22.2738 24.0001 22.9787C23.7775 23.3412 17.4311 27.418 16.9973 27.418C16.5635 27.418 16.7226 28.2023 16.5001 27.8398C17.1093 28.832 14.9019 24.0956 11.5605 25.3533C10.3714 24.4594 10.4666 21.5204 9.00006 21.5204Z" fill="#956D84"/>
</svg>
