<svg width="18" height="14" viewBox="0 0 18 14" fill="none" xmlns="http://www.w3.org/2000/svg">
<path d="M14.5737 10.4849C14.5024 10.4849 14.431 10.4588 14.3752 10.4059L11.0355 7.27283C10.9188 7.16371 10.913 6.97972 11.0227 6.86305C11.1324 6.74523 11.3153 6.74 11.4331 6.85028L14.7728 9.98339C14.8895 10.0925 14.8953 10.2765 14.7856 10.3932C14.7281 10.4541 14.6515 10.4849 14.5737 10.4849Z" fill="#956D84"/>
<path d="M3.42563 10.4852C3.34843 10.4852 3.27124 10.4544 3.21378 10.3935C3.10408 10.2768 3.10988 10.0928 3.22655 9.98371L6.56745 6.8506C6.68469 6.74148 6.86869 6.74612 6.9778 6.86337C7.0875 6.98003 7.0817 7.16403 6.96503 7.27315L3.62413 10.4063C3.56841 10.4591 3.49702 10.4852 3.42563 10.4852Z" fill="#956D84"/>
<path d="M16.5489 13.3981H1.45105C0.651232 13.3981 0 12.7475 0 11.9471V2.05264C0 1.25224 0.651232 0.25 1.45105 0.25H16.5489C17.3488 0.25 18 1.25224 18 2.05264V11.9471C18 12.7475 17.3488 13.3981 16.5489 13.3981ZM1.45105 1.37503C0.971043 1.37503 1.125 1.57263 1.125 2.05264V12.0625C1.125 12.5425 0.971043 12.2342 1.45105 12.2342H16.5489C17.029 12.2342 16.875 12.4271 16.875 11.9471V1.9375C16.875 1.45749 17.029 1.37503 16.5489 1.37503H1.45105Z" fill="#956D84"/>
<path d="M8.99999 8.45795C8.61401 8.45795 8.22803 8.32968 7.93433 8.07371L0.481734 1.57242C0.361007 1.46736 0.348238 1.28395 0.453294 1.16264C0.559511 1.04192 1.00423 0.708318 1.12495 0.812214L8.43745 6.99972C8.80834 7.32301 9.19215 7.32301 9.56245 6.99972L16.875 0.812195C16.6229 0.479178 17.43 1.05178 17.5368 1.17309C17.6419 1.2944 17.6297 1.47723 17.509 1.58287L10.0656 8.07313C9.77136 8.32968 9.38597 8.45795 8.99999 8.45795Z" fill="#956D84"/>
</svg>
