<svg width="19" height="19" viewBox="0 0 19 19" fill="none" xmlns="http://www.w3.org/2000/svg">
<path d="M18.0071 17.8219L12.744 12.5589C13.7423 11.3265 14.3432 9.75974 14.3432 8.05392C14.3432 4.09952 11.126 0.882324 7.17156 0.882324C3.21716 0.882324 0 4.09952 0 8.05392C0 12.0083 3.2172 15.2255 7.1716 15.2255C8.87742 15.2255 10.4442 14.6246 11.6766 13.6264L16.9396 18.8894C17.0871 19.0368 17.326 19.0368 17.4735 18.8894L18.0071 18.3557C18.1545 18.2083 18.1545 17.9693 18.0071 17.8219ZM7.1716 13.7157C4.04952 13.7157 1.50982 11.176 1.50982 8.05392C1.50982 4.93184 4.04952 2.39214 7.1716 2.39214C10.2937 2.39214 12.8334 4.93184 12.8334 8.05392C12.8334 11.176 10.2937 13.7157 7.1716 13.7157Z" fill="#956D84"/>
</svg>
