<svg width="18" height="18" viewBox="0 0 18 18" fill="none" xmlns="http://www.w3.org/2000/svg">
<g clip-path="url(#clip0_40_3792)">
<path d="M17.5106 10.8031C17.6365 10.2084 17.7002 9.60274 17.7002 9C17.7002 6.67612 16.7952 4.49135 15.1521 2.84807C13.5088 1.20479 11.324 0.299789 9.00014 0.299789C8.3985 0.299789 7.79288 0.36351 7.19714 0.489578C6.52437 0.168777 5.78018 0 5.03256 0C2.25755 0 0 2.25755 0 5.03242C0 5.77977 0.168777 6.52396 0.489578 7.19714C0.363785 7.79178 0.300064 8.39726 0.300064 9C0.300064 11.3239 1.20506 13.5087 2.84821 15.1519C4.49135 16.7951 6.67612 17.7001 9.00014 17.7001C9.60178 17.7001 10.2073 17.6362 10.8029 17.5104C11.4759 17.8312 12.2201 18 12.9677 18C15.7426 18 18 15.7424 18 12.9677C18 12.2204 17.8312 11.4762 17.5106 10.8031ZM12.9677 16.9453C12.3151 16.9453 11.6926 16.7916 11.1172 16.4884C11.0408 16.4482 10.9564 16.4276 10.8714 16.4276C10.8311 16.4276 10.7908 16.4323 10.7511 16.4416C10.1736 16.5769 9.58461 16.6454 9.00014 16.6454C4.78441 16.6454 1.35475 13.2157 1.35475 9C1.35475 8.41443 1.42328 7.82542 1.55855 7.24933C1.58752 7.1256 1.57091 6.99554 1.51172 6.88307C1.20836 6.30725 1.05469 5.6846 1.05469 5.03242C1.05469 2.83914 2.83914 1.05469 5.03256 1.05469C5.68515 1.05469 6.30753 1.20836 6.88266 1.51144C6.99513 1.57077 7.12518 1.58739 7.24892 1.55841C7.82652 1.42314 8.41566 1.35448 9.00014 1.35448C13.2159 1.35448 16.6455 4.78427 16.6455 9C16.6455 9.58557 16.577 10.1747 16.4417 10.7509C16.4126 10.8747 16.4292 11.0047 16.4884 11.1172C16.7916 11.6929 16.9453 12.3154 16.9453 12.9677C16.9453 15.161 15.161 16.9453 12.9677 16.9453Z" fill="#956D84"/>
<path d="M9.00003 4.92299C10.5556 4.92299 11.8699 5.7357 11.8699 6.69769C11.8699 6.98897 12.106 7.22504 12.3973 7.22504C12.6884 7.22504 12.9246 6.98897 12.9246 6.69769C12.9246 5.90242 12.4889 5.16936 11.698 4.63336C10.9699 4.13994 10.0117 3.86816 9.00003 3.86816C7.98833 3.86816 7.03018 4.13994 6.30206 4.63336C5.51105 5.16936 5.07544 5.90242 5.07544 6.69769C5.07544 7.49297 5.51105 8.22617 6.30206 8.76216C7.03004 9.25558 7.98819 9.52722 9.00003 9.52722C10.5556 9.52722 11.8699 10.3399 11.8699 11.3021C11.8699 12.2641 10.5556 13.0768 9.00003 13.0768C7.44437 13.0768 6.13013 12.2641 6.13013 11.3021C6.13013 11.0108 5.89406 10.7747 5.60278 10.7747C5.31165 10.7747 5.07544 11.0108 5.07544 11.3021C5.07544 12.0972 5.51105 12.8304 6.30206 13.3664C7.03018 13.8597 7.98833 14.1315 9.00003 14.1315C10.0117 14.1315 10.9699 13.8597 11.698 13.3664C12.4889 12.8304 12.9246 12.0972 12.9246 11.3021C12.9246 10.5067 12.4889 9.77359 11.698 9.23759C10.9699 8.74431 10.0117 8.47253 9.00003 8.47253C7.44437 8.47253 6.13013 7.65982 6.13013 6.69769C6.13013 5.7357 7.44437 4.92299 9.00003 4.92299Z" fill="#956D84"/>
</g>
<defs>
<clipPath id="clip0_40_3792">
<rect width="18" height="18" fill="white"/>
</clipPath>
</defs>
</svg>
