<svg width="34" height="34" viewBox="0 0 34 34" fill="none" xmlns="http://www.w3.org/2000/svg">
<circle cx="17" cy="17" r="17" fill="#956D84"/>
<g clip-path="url(#clip0_40_3796)">
<path d="M25.5106 18.8031C25.6365 18.2084 25.7002 17.6027 25.7002 17C25.7002 14.6761 24.7952 12.4913 23.1521 10.8481C21.5088 9.20479 19.324 8.29979 17.0001 8.29979C16.3985 8.29979 15.7929 8.36351 15.1971 8.48958C14.5244 8.16878 13.7802 8 13.0326 8C10.2576 8 8 10.2576 8 13.0324C8 13.7798 8.16878 14.524 8.48958 15.1971C8.36378 15.7918 8.30006 16.3973 8.30006 17C8.30006 19.3239 9.20506 21.5087 10.8482 23.1519C12.4913 24.7951 14.6761 25.7001 17.0001 25.7001C17.6018 25.7001 18.2073 25.6362 18.8029 25.5104C19.4759 25.8312 20.2201 26 20.9677 26C23.7426 26 26 23.7424 26 20.9677C26 20.2204 25.8312 19.4762 25.5106 18.8031ZM20.9677 24.9453C20.3151 24.9453 19.6926 24.7916 19.1172 24.4884C19.0408 24.4482 18.9564 24.4276 18.8714 24.4276C18.8311 24.4276 18.7908 24.4323 18.7511 24.4416C18.1736 24.5769 17.5846 24.6454 17.0001 24.6454C12.7844 24.6454 9.35475 21.2157 9.35475 17C9.35475 16.4144 9.42328 15.8254 9.55855 15.2493C9.58752 15.1256 9.57091 14.9955 9.51172 14.8831C9.20836 14.3073 9.05469 13.6846 9.05469 13.0324C9.05469 10.8391 10.8391 9.05469 13.0326 9.05469C13.6852 9.05469 14.3075 9.20836 14.8827 9.51144C14.9951 9.57077 15.1252 9.58739 15.2489 9.55841C15.8265 9.42314 16.4157 9.35448 17.0001 9.35448C21.2159 9.35448 24.6455 12.7843 24.6455 17C24.6455 17.5856 24.577 18.1747 24.4417 18.7509C24.4126 18.8747 24.4292 19.0047 24.4884 19.1172C24.7916 19.6929 24.9453 20.3154 24.9453 20.9677C24.9453 23.161 23.161 24.9453 20.9677 24.9453Z" fill="white"/>
<path d="M17 12.923C18.5556 12.923 19.8699 13.7357 19.8699 14.6977C19.8699 14.989 20.106 15.225 20.3973 15.225C20.6884 15.225 20.9246 14.989 20.9246 14.6977C20.9246 13.9024 20.4889 13.1694 19.698 12.6334C18.9699 12.1399 18.0117 11.8682 17 11.8682C15.9883 11.8682 15.0302 12.1399 14.3021 12.6334C13.511 13.1694 13.0754 13.9024 13.0754 14.6977C13.0754 15.493 13.511 16.2262 14.3021 16.7622C15.03 17.2556 15.9882 17.5272 17 17.5272C18.5556 17.5272 19.8699 18.3399 19.8699 19.3021C19.8699 20.2641 18.5556 21.0768 17 21.0768C15.4444 21.0768 14.1301 20.2641 14.1301 19.3021C14.1301 19.0108 13.8941 18.7747 13.6028 18.7747C13.3116 18.7747 13.0754 19.0108 13.0754 19.3021C13.0754 20.0972 13.511 20.8304 14.3021 21.3664C15.0302 21.8597 15.9883 22.1315 17 22.1315C18.0117 22.1315 18.9699 21.8597 19.698 21.3664C20.4889 20.8304 20.9246 20.0972 20.9246 19.3021C20.9246 18.5067 20.4889 17.7736 19.698 17.2376C18.9699 16.7443 18.0117 16.4725 17 16.4725C15.4444 16.4725 14.1301 15.6598 14.1301 14.6977C14.1301 13.7357 15.4444 12.923 17 12.923Z" fill="white"/>
</g>
<defs>
<clipPath id="clip0_40_3796">
<rect width="18" height="18" fill="white" transform="translate(8 8)"/>
</clipPath>
</defs>
</svg>
