<svg width="56" height="56" viewBox="0 0 56 56" fill="none" xmlns="http://www.w3.org/2000/svg">
<circle cx="28" cy="28" r="28" fill="#9D758C" fill-opacity="0.39"/>
<path d="M15.808 34V24.048H12.272V22.64H20.8V24.048H17.264V34H15.808ZM27.092 32.784C28.34 32.784 29.38 32.352 30.212 31.488C31.0547 30.624 31.476 29.568 31.476 28.32C31.476 27.072 31.0547 26.016 30.212 25.152C29.38 24.288 28.34 23.856 27.092 23.856C25.8547 23.856 24.8147 24.288 23.972 25.152C23.14 26.016 22.724 27.072 22.724 28.32C22.724 29.568 23.14 30.624 23.972 31.488C24.8147 32.352 25.8547 32.784 27.092 32.784ZM27.092 34.192C25.46 34.192 24.0733 33.6267 22.932 32.496C21.7907 31.3547 21.22 29.9627 21.22 28.32C21.22 26.6773 21.7907 25.2907 22.932 24.16C24.0733 23.0187 25.46 22.448 27.092 22.448C28.7347 22.448 30.1213 23.0187 31.252 24.16C32.3933 25.2907 32.964 26.6773 32.964 28.32C32.964 29.9627 32.3933 31.3547 31.252 32.496C30.1213 33.6267 28.7347 34.192 27.092 34.192ZM41.4951 23.664C42.2205 24.3467 42.5831 25.2107 42.5831 26.256C42.5831 27.3013 42.2205 28.1653 41.4951 28.848C40.7805 29.52 39.8418 29.856 38.6791 29.856H36.6951V34H35.2071V22.64H38.6791C39.8418 22.64 40.7805 22.9813 41.4951 23.664ZM40.4551 27.856C40.8925 27.44 41.1111 26.9067 41.1111 26.256C41.1111 25.6053 40.8925 25.072 40.4551 24.656C40.0285 24.24 39.4365 24.032 38.6791 24.032H36.6951V28.48H38.6791C39.4365 28.48 40.0285 28.272 40.4551 27.856Z" fill="#956D84"/>
</svg>
