<svg width="27" height="27" viewBox="0 0 27 27" fill="none" xmlns="http://www.w3.org/2000/svg">
<circle cx="13.4583" cy="13.4583" r="13.4583" fill="#956D84"/>
<path d="M14.9284 6H12.0713C9.07877 6 6.64413 8.43406 6.64413 11.426V13.9998C6.64413 16.2279 8.01328 18.2303 10.072 19.0458V20.7143C10.072 20.8275 10.1385 20.9297 10.242 20.9754C10.2791 20.992 10.3185 21 10.3576 21C10.4271 21 10.4959 20.9746 10.5493 20.926L12.2058 19.4258H14.9284C17.9209 19.4258 20.3555 16.9917 20.3555 13.9998V11.426C20.3555 8.43406 17.9209 6 14.9284 6ZM19.7842 13.9998C19.7842 16.6766 17.6061 18.8544 14.9284 18.8544H12.0956C12.0247 18.8544 11.9564 18.8807 11.9039 18.9284L10.6433 20.0702V18.8479C10.6433 18.7268 10.567 18.6188 10.4528 18.5788C8.5166 17.8941 7.21544 16.0539 7.21544 13.9998V11.426C7.21544 8.74914 9.39384 6.57131 12.0713 6.57131H14.9284C17.6061 6.57131 19.7842 8.74914 19.7842 11.426V13.9998V13.9998Z" fill="white"/>
<path d="M17.275 14.7104L15.5194 13.5701C15.3274 13.4452 15.0989 13.403 14.8753 13.4492C14.6513 13.4964 14.4588 13.6286 14.3339 13.8214L14.2514 13.9483C13.4915 13.6972 12.6537 13.3764 12.1521 11.9244L12.3598 11.7439C12.7163 11.4339 12.7537 10.8918 12.4438 10.5347L11.0703 8.95474C10.9669 8.83562 10.7864 8.82334 10.6673 8.92646L9.80489 9.67602C9.04848 10.3336 9.40183 11.3062 9.51809 11.6259C9.52323 11.6402 9.52952 11.6539 9.53695 11.6673C9.56694 11.721 10.2831 12.999 11.4397 14.1771C12.6009 15.36 14.6973 16.4523 14.7616 16.484C15.0009 16.6394 15.2703 16.714 15.5368 16.714C16.0047 16.714 16.4635 16.4846 16.7372 16.0641L17.3593 15.106C17.445 14.9732 17.4073 14.7964 17.275 14.7104ZM16.2578 15.7527C16.0004 16.1492 15.4686 16.2618 15.0486 15.991C15.0278 15.9801 12.9451 14.8955 11.8473 13.7772C10.8212 12.7319 10.14 11.5708 10.0471 11.4088C9.82089 10.7744 9.86088 10.3844 10.1797 10.1074L10.8267 9.54519L12.0127 10.9095C12.1181 11.0306 12.1058 11.2077 11.9853 11.3125L11.6348 11.617C11.5494 11.6913 11.5157 11.8087 11.5491 11.9167C12.1467 13.8586 13.3087 14.2399 14.1571 14.5184L14.2808 14.5593C14.4045 14.601 14.5399 14.5533 14.6107 14.4442L14.8133 14.1322C14.855 14.0677 14.919 14.024 14.9932 14.0083C15.0678 13.9923 15.1438 14.0071 15.2083 14.0491L16.7246 15.0338L16.2578 15.7527Z" fill="white"/>
<path d="M14.1519 10.6409C14 10.5972 13.842 10.6855 13.7989 10.8375C13.7557 10.9892 13.8437 11.1471 13.9954 11.1903C14.421 11.3114 14.7601 11.651 14.8801 12.0769C14.9155 12.2026 15.0301 12.2852 15.1549 12.2852C15.1806 12.2852 15.2066 12.2817 15.2326 12.2746C15.3843 12.2318 15.4728 12.0741 15.43 11.9221C15.2566 11.3068 14.7667 10.8158 14.1519 10.6409Z" fill="white"/>
<path d="M16.3258 12.347C16.3515 12.347 16.3775 12.3435 16.4035 12.3364C16.5554 12.2935 16.6437 12.1356 16.6009 11.9839C16.2638 10.789 15.3128 9.83606 14.1188 9.49613C13.9671 9.45242 13.8092 9.54126 13.766 9.69294C13.7229 9.84463 13.8109 10.0026 13.9626 10.0457C14.9672 10.3314 15.7673 11.1338 16.051 12.139C16.0867 12.2647 16.2009 12.347 16.3258 12.347Z" fill="white"/>
<path d="M13.9957 8.16585C13.8437 8.12214 13.6858 8.21041 13.6426 8.36266C13.5995 8.51435 13.6875 8.67231 13.8392 8.71545C15.5414 9.19963 16.8974 10.5588 17.3779 12.2621C17.4133 12.3878 17.5278 12.4704 17.6527 12.4704C17.6784 12.4704 17.7044 12.4669 17.7303 12.4598C17.882 12.417 17.9706 12.259 17.9277 12.1073C17.3938 10.2143 15.8873 8.70431 13.9957 8.16585Z" fill="white"/>
</svg>
