<svg width="21" height="21" viewBox="0 0 21 21" fill="none" xmlns="http://www.w3.org/2000/svg">
<path d="M5.85405 15.9065L5.85404 15.9065C5.36177 15.9783 4.99232 16.4081 4.99232 16.9225V16.9226C4.99168 17.1475 5.06521 17.3663 5.20152 17.5451C5.44175 17.8579 5.68836 18.1657 5.9412 18.4684L6.00973 18.5505H5.90282H4.61432H4.59003L4.57502 18.5314C4.49389 18.4282 4.41229 18.3231 4.32973 18.216C4.0433 17.8445 3.89232 17.3862 3.89232 16.923C3.89232 15.8795 4.64574 14.9717 5.69509 14.8185C9.22784 14.3023 11.6846 14.3489 15.1967 14.835C15.1967 14.835 15.1967 14.835 15.1967 14.835L15.1898 14.8845C16.2033 15.0245 16.9423 15.897 16.9423 16.9095L5.85405 15.9065ZM5.85405 15.9065C9.27121 15.4073 11.6229 15.4501 15.0457 15.924L5.85405 15.9065ZM15.7108 17.564C15.8598 17.382 15.9423 17.149 15.9423 16.909C15.944 16.6582 15.8548 16.4153 15.6913 16.2252C15.5278 16.035 15.301 15.9105 15.0528 15.8745L15.7108 17.564ZM15.7108 17.564C15.4652 17.8641 15.2139 18.1595 14.9571 18.45L15.7108 17.564ZM11.5712 10.7254C11.2133 10.8737 10.8297 10.95 10.4423 10.95C9.65993 10.95 8.90959 10.6392 8.35636 10.086C7.80312 9.53273 7.49232 8.78239 7.49232 8C7.49232 7.21761 7.80312 6.46727 8.35636 5.91403C8.90959 5.3608 9.65993 5.05 10.4423 5.05C10.8297 5.05 11.2133 5.1263 11.5712 5.27456C11.9291 5.42281 12.2544 5.6401 12.5283 5.91403C12.8022 6.18797 13.0195 6.51317 13.1678 6.87108C13.316 7.22899 13.3923 7.6126 13.3923 8C13.3923 8.3874 13.316 8.77101 13.1678 9.12892C13.0195 9.48683 12.8022 9.81203 12.5283 10.086C12.2544 10.3599 11.9291 10.5772 11.5712 10.7254ZM10.4423 12.05C11.5164 12.05 12.5466 11.6233 13.3061 10.8638C14.0656 10.1043 14.4923 9.07413 14.4923 8C14.4923 6.92587 14.0656 5.89574 13.3061 5.13622C12.5466 4.37669 11.5164 3.95 10.4423 3.95C9.3682 3.95 8.33806 4.37669 7.57854 5.13622C6.81902 5.89574 6.39232 6.92587 6.39232 8C6.39232 9.07413 6.81902 10.1043 7.57854 10.8638C8.33806 11.6233 9.3682 12.05 10.4423 12.05Z" fill="black" stroke="black" stroke-width="0.1"/>
<path d="M19.3923 10.5C19.3923 15.4429 15.3852 19.45 10.4423 19.45C5.49944 19.45 1.49232 15.4429 1.49232 10.5C1.49232 5.55711 5.49944 1.55 10.4423 1.55C15.3852 1.55 19.3923 5.55711 19.3923 10.5ZM10.4423 20.55C15.9929 20.55 20.4923 16.0506 20.4923 10.5C20.4923 4.94939 15.9929 0.45 10.4423 0.45C4.89171 0.45 0.392322 4.94939 0.392322 10.5C0.392322 16.0506 4.89171 20.55 10.4423 20.55Z" fill="black" stroke="black" stroke-width="0.1"/>
</svg>
