<svg width="20" height="20" viewBox="0 0 20 20" fill="none" xmlns="http://www.w3.org/2000/svg">
<path d="M15.2107 14.3537L19.261 18.406C19.3786 18.5277 19.4437 18.6908 19.4422 18.8601C19.4408 19.0293 19.3729 19.1912 19.2531 19.3109C19.1334 19.4306 18.9715 19.4985 18.8022 19.5C18.6329 19.5014 18.4698 19.4364 18.348 19.3188L14.2977 15.2652C12.6496 16.677 10.5186 17.3957 8.3519 17.2704C6.18521 17.1452 4.15124 16.1859 2.6768 14.5936C1.20235 13.0014 0.402048 10.9001 0.443817 8.7307C0.485586 6.56127 1.36618 4.49233 2.90082 2.95802C4.43546 1.42372 6.50486 0.543316 8.67476 0.501556C10.8447 0.459796 12.9464 1.25993 14.539 2.73405C16.1315 4.20817 17.0911 6.24169 17.2164 8.40791C17.3416 10.5741 16.6228 12.7047 15.2107 14.3524V14.3537ZM8.83642 15.9934C10.7202 15.9934 12.5267 15.2453 13.8588 13.9136C15.1908 12.5818 15.9391 10.7756 15.9391 8.89232C15.9391 7.00899 15.1908 5.20279 13.8588 3.87108C12.5267 2.53936 10.7202 1.79121 8.83642 1.79121C6.95267 1.79121 5.14608 2.53936 3.81408 3.87108C2.48207 5.20279 1.73376 7.00899 1.73376 8.89232C1.73376 10.7756 2.48207 12.5818 3.81408 13.9136C5.14608 15.2453 6.95267 15.9934 8.83642 15.9934Z" fill="black"/>
</svg>
